# xmcd
# Track frame offsets:
# 150
# 16275
# 33150
# 49650
# 66975
# 80175
# 93150
# 114900
# 131250
# 143925
# 159600
# 173025
# 187725
# 200550
# 214350
# 229425
#
# Disc length: 3248 seconds
# Revision: 0
# Processed by: cddbd v1.5.2PL0 Copyright (c) Steve Scherf et al.
# Submitted via: VisiTrax 2.10.3.257 - For more info visit www.synapsa.com
#
DISCID=db0cae10
DTITLE=Dann, Scott - The Real Me
DYEAR=2007
DGENRE=Country
TTITLE0=Am I Losing you
TTITLE1=How Much Tequila
TTITLE2=The Real Me
TTITLE3=Our Last Date
TTITLE4=Show me the way to Amarillo
TTITLE5=In the Misty Moonlight
TTITLE6=Endlessly
TTITLE7=Then you can tell me Goodby
TTITLE8=He drinks Tequila
TTITLE9=The last Farewell
TTITLE10=Sweetheart
TTITLE11=It's your day Today
TTITLE12=Come a little bit closer
TTITLE13=I really don't want to know
TTITLE14=Heaven in my Woman's Eyes
TTITLE15=Let the Heartache Begin
EXTD=
EXTT0=
EXTT1=
EXTT2=
EXTT3=
EXTT4=
EXTT5=
EXTT6=
EXTT7=
EXTT8=
EXTT9=
EXTT10=
EXTT11=
EXTT12=
EXTT13=
EXTT14=
EXTT15=
PLAYORDER=
